<?xml version="1.0" encoding="utf-8"?>
<!-- Generator: Adobe Illustrator 12.0.0, SVG Export Plug-In . SVG Version: 6.00 Build 51448)  -->
<!DOCTYPE svg PUBLIC "-//W3C//DTD SVG 1.1//EN" "http://www.w3.org/Graphics/SVG/1.1/DTD/svg11.dtd" [
	<!ENTITY ns_svg "http://www.w3.org/2000/svg">
	<!ENTITY ns_xlink "http://www.w3.org/1999/xlink">
]>
      <svg  version="1.1" id="Layer_1" xmlns="&ns_svg;" xmlns:xlink="&ns_xlink;"  viewBox="0 0 220 100"
	 overflow="visible" enable-background="new 0 0 288 288" xml:space="preserve">
<g opacity="0">
	<rect fill="#FAFAFA"/>
</g>
<g>
	<g>
		<path d="M199.637,81.498l-0.177-1.352c1.022-0.134,1.933-0.657,2.562-1.476c0.629-0.819,0.901-1.833,0.77-2.855
			c-0.137-1.023-0.658-1.934-1.479-2.562c-0.815-0.629-1.83-0.902-2.854-0.768l-0.177-1.352c1.384-0.184,2.756,0.187,3.862,1.038
			c1.104,0.851,1.814,2.081,1.996,3.466c0.182,1.384-0.188,2.756-1.037,3.862C202.251,80.608,201.02,81.317,199.637,81.498z"/>
	</g>
	<g>
		<path d="M70.585,225.291c-0.684,0-1.371-0.096-2.047-0.287c-1.915-0.544-3.503-1.8-4.472-3.538l1.697-0.946
			c0.716,1.285,1.89,2.213,3.306,2.615c1.414,0.401,2.903,0.229,4.187-0.488c2.652-1.479,3.607-4.84,2.129-7.489l1.697-0.947
			c2,3.589,0.709,8.136-2.879,10.136C73.078,224.973,71.838,225.291,70.585,225.291z"/>
	</g>
	<g>
		<path d="M243.385,179.912c-3.098-2.813-3.328-7.624-0.517-10.723c2.813-3.099,7.624-3.328,10.722-0.519l-1.33,1.468
			c-2.289-2.078-5.845-1.908-7.926,0.383c-2.079,2.289-1.907,5.846,0.382,7.926L243.385,179.912z"/>
	</g>
	<g>
		<path d="M80.762,19.087c-0.983,0-1.921-0.354-2.663-1.013c-0.803-0.713-1.28-1.695-1.344-2.768
			c-0.064-1.071,0.293-2.104,1.006-2.907c0.713-0.803,1.696-1.28,2.768-1.345l0.063,1.047c-0.792,0.047-1.519,0.4-2.045,0.994
			c-0.526,0.594-0.791,1.356-0.744,2.148c0.047,0.793,0.4,1.52,0.994,2.046c0.593,0.526,1.356,0.79,2.149,0.743l0.063,1.047
			C80.925,19.085,80.843,19.087,80.762,19.087z"/>
	</g>
	<g>
		<path d="M277.249,154.416l-0.829-1.137c0.859-0.627,1.424-1.551,1.588-2.604c0.164-1.052-0.092-2.104-0.719-2.965
			c-1.296-1.771-3.794-2.164-5.566-0.868l-0.83-1.137c2.4-1.752,5.78-1.224,7.532,1.176c0.849,1.163,1.194,2.59,0.972,4.012
			C279.175,152.316,278.412,153.566,277.249,154.416z"/>
	</g>
	<g>
		<path d="M161.77,182.333l-1.146-1.781c2.784-1.791,3.593-5.514,1.802-8.298c-1.791-2.785-5.513-3.595-8.297-1.802l-1.146-1.783
			c3.768-2.42,8.804-1.327,11.227,2.438C166.629,174.875,165.535,179.91,161.77,182.333z"/>
	</g>
	<g>
		<path d="M10.62,34.512c-1.377,0-2.725-0.685-3.511-1.935l0.914-0.574c0.435,0.691,1.114,1.172,1.911,1.354
			c0.795,0.182,1.617,0.041,2.309-0.394c1.428-0.898,1.859-2.792,0.96-4.221l0.914-0.574c1.216,1.933,0.633,4.493-1.299,5.709
			C12.135,34.307,11.373,34.512,10.62,34.512z"/>
	</g>
	<g>
		<path d="M266.857,57.786c-0.896-1.122-1.303-2.525-1.145-3.952c0.158-1.428,0.863-2.708,1.984-3.604
			c2.314-1.85,5.705-1.474,7.559,0.842l-1.096,0.875c-1.368-1.711-3.873-1.99-5.586-0.621c-0.829,0.663-1.352,1.608-1.469,2.664
			c-0.119,1.055,0.184,2.092,0.847,2.92L266.857,57.786z"/>
	</g>
	<g>
		<path d="M120.116,179.246c-3.608-2.979-4.122-8.337-1.145-11.944c1.442-1.747,3.479-2.829,5.735-3.047
			c2.259-0.214,4.462,0.46,6.21,1.901l-1.409,1.707c-1.292-1.066-2.92-1.567-4.589-1.405c-1.667,0.16-3.173,0.96-4.239,2.252
			c-2.201,2.667-1.821,6.628,0.847,8.829L120.116,179.246z"/>
	</g>
	<path d="M237.307,17.191L237.307,17.191c1.215,0,2.31,0.672,2.855,1.754c0.386,0.762,0.451,1.629,0.188,2.439
		c-0.268,0.813-0.832,1.471-1.595,1.857c-0.453,0.229-0.938,0.346-1.44,0.346c-1.215,0-2.309-0.672-2.854-1.754
		c-0.796-1.572-0.164-3.5,1.409-4.297C236.318,17.308,236.805,17.191,237.307,17.191 M237.307,15.766
		c-0.703,0-1.416,0.16-2.084,0.499c-2.279,1.154-3.188,3.937-2.037,6.214c0.814,1.608,2.44,2.535,4.129,2.535
		c0.701,0,1.414-0.16,2.084-0.5c2.279-1.152,3.19-3.935,2.037-6.213C240.621,16.692,238.994,15.766,237.307,15.766L237.307,15.766z"
		/>
	<path d="M54.933,106.982L54.933,106.982c0.09,0,0.181,0.005,0.273,0.014c0.683,0.072,1.296,0.406,1.729,0.939
		c0.432,0.533,0.63,1.203,0.558,1.885c-0.138,1.313-1.235,2.301-2.551,2.301c-0.09,0-0.182-0.005-0.273-0.014
		c-1.409-0.148-2.434-1.416-2.286-2.824C52.52,107.971,53.617,106.982,54.933,106.982 M54.933,105.836
		c-1.876,0-3.49,1.419-3.69,3.326c-0.215,2.041,1.266,3.869,3.306,4.084c0.132,0.015,0.264,0.021,0.394,0.021
		c1.878,0,3.49-1.419,3.691-3.326c0.215-2.041-1.265-3.869-3.306-4.084C55.194,105.843,55.063,105.836,54.933,105.836
		L54.933,105.836z"/>
	<path d="M258.123,87.505c1.188,0,2.248,0.798,2.579,1.939c0.413,1.424-0.408,2.919-1.832,3.331
		c-0.245,0.072-0.498,0.108-0.751,0.108c-1.188,0-2.248-0.798-2.58-1.939c-0.413-1.424,0.408-2.919,1.833-3.331
		C257.617,87.541,257.869,87.505,258.123,87.505 M258.122,86.306c-0.358,0-0.724,0.05-1.085,0.155
		c-2.063,0.599-3.248,2.756-2.65,4.817c0.494,1.7,2.047,2.805,3.732,2.805c0.357,0,0.724-0.05,1.086-0.155
		c2.061-0.599,3.247-2.756,2.648-4.817C261.359,87.411,259.809,86.306,258.122,86.306L258.122,86.306z"/>
	<path d="M123.142,14.389L123.142,14.389c0.575,0,1.134,0.123,1.664,0.363c0.979,0.445,1.725,1.244,2.103,2.252
		c0.377,1.007,0.34,2.101-0.105,3.078c-0.652,1.435-2.092,2.361-3.668,2.361c-0.574,0-1.134-0.122-1.663-0.363
		c-2.021-0.918-2.917-3.311-1.999-5.33C120.126,15.315,121.566,14.389,123.142,14.389 M123.142,12.594
		c-2.212,0-4.327,1.268-5.303,3.412c-1.331,2.927-0.038,6.378,2.89,7.709c0.782,0.355,1.6,0.523,2.406,0.523
		c2.212,0,4.328-1.268,5.303-3.412c1.331-2.926,0.037-6.379-2.889-7.709C124.768,12.762,123.948,12.594,123.142,12.594
		L123.142,12.594z"/>
	<path d="M194.343,138.43L194.343,138.43c0.169,0,0.341,0.014,0.509,0.043c1.605,0.278,2.688,1.812,2.41,3.418
		c-0.246,1.421-1.471,2.453-2.91,2.453c-0.168,0-0.34-0.016-0.508-0.044c-1.607-0.278-2.688-1.812-2.41-3.417
		C191.68,139.461,192.902,138.43,194.343,138.43 M194.342,137.11c-2.041,0-3.848,1.468-4.208,3.547
		c-0.401,2.327,1.157,4.538,3.484,4.942c0.247,0.041,0.491,0.063,0.733,0.063c2.041,0,3.848-1.467,4.209-3.547
		c0.4-2.326-1.158-4.539-3.484-4.941C194.83,137.131,194.584,137.11,194.342,137.11L194.342,137.11z"/>
	<path d="M52.387,142.501L52.387,142.501c0.785,0,1.527,0.257,2.147,0.742c0.732,0.574,1.197,1.399,1.31,2.323
		c0.112,0.926-0.143,1.838-0.717,2.568c-0.665,0.85-1.666,1.338-2.747,1.338c-0.785,0-1.527-0.26-2.147-0.744
		c-1.513-1.187-1.779-3.381-0.594-4.895C50.305,142.987,51.307,142.501,52.387,142.501 M52.387,140.945
		c-1.496,0-2.977,0.664-3.971,1.932c-1.717,2.191-1.333,5.359,0.858,7.076c0.922,0.724,2.018,1.074,3.106,1.074
		c1.496,0,2.977-0.663,3.971-1.932c1.717-2.19,1.333-5.361-0.858-7.078C54.57,141.297,53.475,140.945,52.387,140.945L52.387,140.945
		z"/>
	<path d="M19.679,260.662L19.679,260.662c0.768,0,1.473,0.35,1.937,0.959c0.393,0.518,0.561,1.154,0.473,1.799
		c-0.087,0.643-0.42,1.213-0.937,1.605c-0.426,0.324-0.934,0.496-1.468,0.496c-0.767,0-1.473-0.351-1.937-0.959
		c-0.393-0.519-0.561-1.155-0.474-1.799c0.087-0.645,0.42-1.215,0.937-1.605C18.638,260.833,19.145,260.662,19.679,260.662
		 M19.679,259.578c-0.741,0-1.489,0.232-2.125,0.717c-1.545,1.174-1.845,3.379-0.67,4.924c0.691,0.909,1.739,1.389,2.8,1.389
		c0.741,0,1.489-0.233,2.125-0.719c1.544-1.174,1.845-3.379,0.67-4.924C21.788,260.057,20.74,259.578,19.679,259.578L19.679,259.578
		z"/>
	<path d="M137.24,67.874L137.24,67.874c1.842,0,3.504,1.164,4.136,2.896c0.831,2.28-0.348,4.812-2.628,5.643
		c-0.487,0.178-0.994,0.268-1.506,0.268c-1.843,0-3.505-1.164-4.137-2.896c-0.403-1.105-0.351-2.301,0.146-3.367
		c0.497-1.064,1.378-1.873,2.483-2.276C136.22,67.964,136.727,67.874,137.24,67.874 M137.239,65.91
		c-0.724,0-1.459,0.125-2.179,0.387c-3.303,1.203-5.005,4.856-3.801,8.16c0.941,2.584,3.382,4.188,5.981,4.188
		c0.723,0,1.459-0.125,2.178-0.387c3.302-1.203,5.004-4.857,3.801-8.16C142.278,67.514,139.838,65.91,137.239,65.91L137.239,65.91z"
		/>
	<path d="M138.62,251.973L138.62,251.973c0.385,0,0.757,0.088,1.107,0.26c0.601,0.298,1.051,0.811,1.267,1.443
		c0.215,0.635,0.171,1.314-0.125,1.915c-0.426,0.865-1.29,1.402-2.254,1.402c-0.385,0-0.757-0.087-1.105-0.259
		c-1.241-0.612-1.754-2.12-1.143-3.36C136.792,252.51,137.656,251.973,138.62,251.973 M138.62,250.854
		c-1.338,0-2.626,0.744-3.257,2.025c-0.885,1.798-0.146,3.973,1.652,4.859c0.516,0.254,1.062,0.373,1.6,0.373
		c1.338,0,2.626-0.743,3.258-2.025c0.885-1.797,0.146-3.973-1.651-4.857C139.705,250.975,139.158,250.854,138.62,250.854
		L138.62,250.854z"/>
	<path d="M104.682,49.646l4.067,4.496l-6.038,0.556l-4.067-4.497L104.682,49.646 M105.289,48.091l-9.757,0.896l6.572,7.267
		l9.756-0.897L105.289,48.091L105.289,48.091z"/>
	<path d="M14.543,194.114l4.165,4.407L17.68,204.5l-4.164-4.409L14.543,194.114 M13.577,190.916l-1.66,9.658l6.729,7.124
		l1.661-9.659L13.577,190.916L13.577,190.916z"/>
	<path d="M237.102,256.218l8.074,3.997l1.647,8.855l-8.074-3.995L237.102,256.218 M234.107,252.259l2.662,14.313l13.049,6.457
		l-2.664-14.313L234.107,252.259L234.107,252.259z"/>
	<path d="M55.586,46.563l4.409,1.554l1.403,4.459l-4.409-1.554L55.586,46.563 M53.796,44.711l2.267,7.207l7.125,2.51l-2.267-7.205
		L53.796,44.711L53.796,44.711z"/>
	<path d="M140.671,198.534l0.633,5.332l-3.885,3.706l-0.634-5.332L140.671,198.534 M141.673,195.75l-6.279,5.989l1.024,8.616
		l6.278-5.988L141.673,195.75L141.673,195.75z"/>
	<path d="M87.471,131.133l4.257,2.358l0.668,4.82l-4.257-2.357L87.471,131.133 M85.955,128.922l1.079,7.79l6.88,3.811l-1.08-7.789
		L85.955,128.922L85.955,128.922z"/>
	<path d="M102.926,265.984l-1.991,4.078l-4.457,0.854l1.991-4.077L102.926,265.984 M104.912,264.467l-7.202,1.381l-3.217,6.588
		l7.201-1.379L104.912,264.467L104.912,264.467z"/>
	<path d="M158.036,125.001l-5.024,7.547l-9.053,0.508l5.025-7.547L158.036,125.001 M162.371,122.521l-14.627,0.821l-8.121,12.194
		l14.629-0.82L162.371,122.521L162.371,122.521z"/>
	<path d="M35.183,12.251l5.935,6.171l-1.375,8.451l-5.936-6.171L35.183,12.251 M33.778,7.747l-2.223,13.657l9.592,9.973
		l2.222-13.656L33.778,7.747L33.778,7.747z"/>
	<g>
		<path d="M17.911,71.285c-0.146,0-0.293-0.031-0.433-0.097c-0.513-0.239-0.734-0.85-0.495-1.362
			c0.558-1.194,1.535-2.06,2.752-2.438c1.217-0.377,2.511-0.217,3.644,0.448c0.63,0.37,1.34,0.46,1.998,0.256
			c0.659-0.205,1.192-0.683,1.502-1.346c0.558-1.193,1.536-2.059,2.753-2.437c1.215-0.378,2.51-0.219,3.643,0.448
			c0.488,0.287,0.651,0.915,0.364,1.403c-0.287,0.489-0.916,0.649-1.403,0.364c-0.63-0.371-1.339-0.463-1.996-0.258
			c-0.659,0.205-1.194,0.684-1.504,1.348c-0.557,1.191-1.534,2.056-2.75,2.434c-1.215,0.379-2.51,0.221-3.645-0.445
			c-0.632-0.37-1.34-0.461-1.998-0.259c-0.659,0.205-1.192,0.684-1.502,1.348C18.667,71.066,18.297,71.285,17.911,71.285z"/>
	</g>
	<g>
		<path d="M219.126,115.231c-0.009,0-0.017,0-0.026-0.001c-0.367-0.014-0.656-0.324-0.643-0.693c0.02-0.476-0.146-0.911-0.469-1.226
			c-0.321-0.315-0.758-0.476-1.24-0.447c-0.855,0.042-1.654-0.245-2.248-0.827s-0.902-1.375-0.873-2.232
			c0.02-0.477-0.148-0.912-0.468-1.227c-0.322-0.316-0.765-0.471-1.24-0.447c-0.367-0.004-0.685-0.262-0.705-0.63
			c-0.021-0.369,0.261-0.685,0.63-0.706c0.859-0.04,1.658,0.245,2.252,0.828c0.592,0.582,0.901,1.374,0.869,2.231
			c-0.018,0.476,0.148,0.912,0.471,1.228c0.322,0.314,0.76,0.469,1.237,0.446c0.868-0.038,1.659,0.245,2.253,0.829
			c0.594,0.582,0.901,1.374,0.868,2.23C219.779,114.948,219.482,115.231,219.126,115.231z"/>
	</g>
	<g>
		<path d="M204.691,243.325c-0.332,0-0.604-0.267-0.606-0.599c-0.004-0.336,0.265-0.61,0.599-0.615
			c0.434-0.004,0.818-0.176,1.088-0.479c0.271-0.306,0.396-0.712,0.351-1.143c-0.083-0.774,0.146-1.511,0.646-2.075
			c0.5-0.563,1.203-0.881,1.981-0.893c0.433-0.004,0.819-0.177,1.09-0.48c0.271-0.305,0.394-0.71,0.349-1.141
			c-0.037-0.334,0.203-0.633,0.537-0.668c0.332-0.045,0.631,0.203,0.666,0.537c0.086,0.772-0.145,1.512-0.646,2.074
			c-0.499,0.563-1.203,0.881-1.979,0.891c-0.433,0.007-0.82,0.179-1.091,0.482c-0.271,0.307-0.396,0.71-0.348,1.143
			c0.084,0.772-0.146,1.513-0.646,2.076c-0.5,0.563-1.203,0.879-1.98,0.89C204.695,243.325,204.693,243.325,204.691,243.325z"/>
	</g>
	<g>
		<path d="M48.416,191.543c-0.21,0-0.422-0.068-0.599-0.212c-0.954-0.771-1.518-1.849-1.587-3.032
			c-0.069-1.183,0.364-2.316,1.219-3.191c0.474-0.484,0.715-1.106,0.677-1.748c-0.038-0.643-0.351-1.229-0.88-1.657
			c-0.954-0.771-1.518-1.849-1.587-3.033c-0.069-1.185,0.364-2.315,1.22-3.19c0.37-0.377,0.974-0.384,1.349-0.016
			c0.377,0.368,0.383,0.973,0.015,1.35c-0.476,0.485-0.716,1.105-0.679,1.746c0.038,0.643,0.351,1.23,0.882,1.659
			c0.953,0.771,1.516,1.847,1.585,3.029c0.07,1.185-0.361,2.317-1.216,3.194c-0.476,0.486-0.717,1.105-0.68,1.746
			c0.037,0.643,0.351,1.23,0.882,1.66c0.41,0.33,0.474,0.933,0.143,1.342C48.97,191.422,48.694,191.543,48.416,191.543z"/>
	</g>
	<g>
		<path d="M58.755,259.109c-1.137,0-2.214-0.375-3.094-1.09c-1.083-0.879-1.724-2.155-1.805-3.596
			c-0.046-0.798-0.395-1.5-0.981-1.976c-0.587-0.478-1.346-0.675-2.138-0.554c-1.428,0.213-2.812-0.146-3.896-1.028
			c-1.083-0.88-1.723-2.155-1.803-3.595c-0.034-0.617,0.439-1.147,1.059-1.184c0.624-0.029,1.149,0.439,1.184,1.059
			c0.044,0.801,0.391,1.5,0.977,1.978c0.588,0.479,1.35,0.674,2.143,0.552c1.425-0.213,2.806,0.149,3.889,1.028
			c1.084,0.879,1.727,2.153,1.81,3.593c0.045,0.803,0.392,1.502,0.978,1.979c0.587,0.478,1.346,0.676,2.141,0.553
			c0.612-0.096,1.185,0.329,1.278,0.941c0.093,0.611-0.328,1.186-0.941,1.277C59.286,259.089,59.019,259.109,58.755,259.109z"/>
	</g>
	<g>
		<path d="M12.091,105.996c-0.04,0-0.08-0.001-0.119-0.002c-0.419-0.014-0.749-0.365-0.735-0.784c0.013-0.42,0.361-0.74,0.784-0.735
			c0.551,0.024,1.036-0.174,1.391-0.541c0.356-0.367,0.534-0.867,0.5-1.409c-0.06-0.976,0.269-1.886,0.927-2.563
			c0.657-0.678,1.561-1.025,2.529-1.004c0.546,0.014,1.036-0.174,1.392-0.541c0.356-0.367,0.534-0.868,0.5-1.411
			c-0.026-0.419,0.292-0.779,0.711-0.806c0.421-0.03,0.779,0.293,0.806,0.712c0.061,0.975-0.268,1.886-0.927,2.563
			c-0.657,0.677-1.563,1.03-2.53,1.002c-0.539-0.027-1.035,0.175-1.39,0.542c-0.356,0.368-0.534,0.869-0.501,1.411
			c0.062,0.974-0.267,1.884-0.925,2.563C13.872,105.642,13.02,105.996,12.091,105.996z"/>
	</g>
	<g>
		<path d="M122.261,111.208c-0.596,0-1.179-0.149-1.708-0.443c-0.882-0.49-1.5-1.318-1.739-2.333
			c-0.134-0.563-0.471-1.021-0.95-1.286c-0.478-0.265-1.043-0.31-1.594-0.123c-0.991,0.335-2.022,0.249-2.906-0.243
			c-0.883-0.49-1.5-1.319-1.739-2.334c-0.103-0.438,0.168-0.875,0.605-0.978c0.44-0.1,0.875,0.169,0.977,0.604
			c0.133,0.563,0.469,1.021,0.947,1.286s1.044,0.311,1.596,0.123c0.987-0.334,2.019-0.247,2.903,0.242
			c0.884,0.49,1.502,1.319,1.743,2.334c0.133,0.564,0.469,1.021,0.946,1.286c0.479,0.266,1.046,0.311,1.597,0.123
			c0.426-0.141,0.887,0.087,1.03,0.511c0.144,0.425-0.085,0.887-0.51,1.03C123.062,111.142,122.659,111.208,122.261,111.208z"/>
	</g>
	<g>
		<path d="M19.299,149.241c-0.254,0-0.508-0.099-0.7-0.294c-0.881-0.9-1.328-2.065-1.258-3.282c0.07-1.215,0.647-2.319,1.624-3.11
			c0.542-0.439,0.861-1.045,0.899-1.703c0.038-0.658-0.211-1.296-0.7-1.795c-0.882-0.9-1.329-2.066-1.258-3.283
			c0.071-1.216,0.647-2.32,1.625-3.11c0.421-0.34,1.037-0.274,1.378,0.146c0.34,0.421,0.275,1.037-0.146,1.378
			c-0.542,0.439-0.862,1.043-0.9,1.7c-0.038,0.659,0.211,1.298,0.702,1.799c0.879,0.897,1.326,2.062,1.256,3.277
			c-0.07,1.215-0.646,2.322-1.622,3.114c-0.543,0.439-0.863,1.044-0.901,1.701c-0.038,0.658,0.211,1.297,0.702,1.798
			c0.378,0.387,0.372,1.007-0.015,1.386C19.794,149.148,19.547,149.241,19.299,149.241z"/>
	</g>
	<g>
		<path d="M162.174,51.276c-0.497,0-0.999-0.09-1.488-0.271c-0.486-0.18-0.736-0.721-0.559-1.208
			c0.18-0.488,0.721-0.738,1.208-0.558c0.629,0.229,1.284,0.198,1.847-0.093c0.563-0.293,0.967-0.813,1.139-1.464
			c0.311-1.167,1.053-2.107,2.09-2.647c1.037-0.541,2.23-0.609,3.365-0.193c0.632,0.232,1.285,0.2,1.849-0.091
			c0.563-0.293,0.966-0.813,1.14-1.463c0.133-0.502,0.648-0.802,1.148-0.67c0.503,0.133,0.803,0.648,0.67,1.15
			c-0.311,1.17-1.053,2.112-2.091,2.652c-1.037,0.537-2.231,0.606-3.364,0.188c-0.63-0.23-1.286-0.196-1.85,0.096
			c-0.563,0.293-0.965,0.812-1.137,1.461c-0.311,1.17-1.053,2.111-2.092,2.651C163.461,51.123,162.822,51.276,162.174,51.276z"/>
	</g>
	<g>
		<path d="M213.877,161.912c-0.135,0-0.271-0.048-0.377-0.146l-3.63-3.328c-0.228-0.209-0.241-0.561-0.034-0.787
			c0.208-0.228,0.561-0.241,0.787-0.032l3.63,3.329c0.228,0.207,0.241,0.56,0.034,0.785
			C214.177,161.852,214.027,161.912,213.877,161.912z"/>
	</g>
	<g>
		<path d="M95.099,188.462c-0.162,0-0.324-0.067-0.44-0.198l-3.438-3.891c-0.214-0.243-0.191-0.614,0.051-0.828
			s0.613-0.191,0.829,0.051l3.438,3.891c0.214,0.244,0.191,0.615-0.051,0.828C95.376,188.413,95.237,188.462,95.099,188.462z"/>
	</g>
	<g>
		<path d="M70.937,80.238c-0.318,0-0.606-0.219-0.681-0.542c-0.087-0.376,0.147-0.751,0.524-0.838l6.024-1.393
			c0.371-0.092,0.751,0.146,0.838,0.523c0.087,0.376-0.147,0.751-0.524,0.838l-6.024,1.393
			C71.042,80.232,70.989,80.238,70.937,80.238z"/>
	</g>
	<g>
		<path d="M196.02,27.134c-0.299,0-0.568-0.204-0.645-0.508c-0.085-0.356,0.135-0.715,0.49-0.8l5.705-1.371
			c0.354-0.088,0.715,0.134,0.801,0.489c0.085,0.356-0.135,0.715-0.49,0.8l-5.705,1.371C196.123,27.128,196.07,27.134,196.02,27.134
			z"/>
	</g>
	<g>
		<path d="M271.838,249.587c-0.275,0-0.525-0.188-0.592-0.467l-1.249-5.234c-0.078-0.327,0.124-0.655,0.451-0.733
			c0.321-0.075,0.653,0.123,0.731,0.451l1.25,5.233c0.076,0.327-0.125,0.655-0.451,0.733
			C271.932,249.581,271.885,249.587,271.838,249.587z"/>
	</g>
	<g>
		<path d="M173.539,255.509c-0.227,0-0.441-0.13-0.539-0.35l-2.113-4.761c-0.133-0.297,0.002-0.646,0.299-0.776
			s0.646,0.002,0.777,0.299l2.114,4.761c0.132,0.297-0.003,0.646-0.3,0.776C173.699,255.492,173.619,255.509,173.539,255.509z"/>
	</g>
	<g>
		<path d="M171.221,218.332c-0.519,0-0.951-0.402-0.982-0.927c-0.03-0.544,0.384-1.009,0.927-1.041l8.692-0.511
			c0.55-0.023,1.011,0.383,1.041,0.927c0.031,0.543-0.383,1.009-0.926,1.04l-8.693,0.511
			C171.259,218.332,171.238,218.332,171.221,218.332z"/>
	</g>
	<g>
		<path d="M114.279,230.189c-0.226,0-0.434-0.146-0.501-0.375l-1.307-4.437c-0.082-0.274,0.077-0.565,0.354-0.647
			c0.274-0.084,0.567,0.078,0.649,0.354l1.307,4.438c0.082,0.274-0.077,0.565-0.354,0.646
			C114.377,230.184,114.328,230.189,114.279,230.189z"/>
	</g>
	<g>
		<path d="M276.98,198.816c-0.035,0-0.068-0.002-0.104-0.008l-7.578-0.908c-0.473-0.058-0.812-0.485-0.755-0.959
			c0.059-0.475,0.492-0.814,0.96-0.754l7.578,0.907c0.474,0.058,0.812,0.486,0.754,0.96
			C277.784,198.494,277.411,198.816,276.98,198.816z"/>
	</g>
	<g>
		<polygon points="239.521,139.729 237.934,138.15 245.95,130.087 254.014,138.104 252.434,139.692 245.959,133.255 		"/>
	</g>
	<g>
		<polygon points="204.816,202.73 203.377,201.908 206.732,196.04 200.865,192.686 201.689,191.245 208.996,195.425 		"/>
	</g>
	<g>
		<polygon points="158.115,280.938 153.762,274.854 154.96,273.995 158.456,278.882 163.342,275.385 164.199,276.584 		"/>
	</g>
	<g>
		<polygon points="232.65,59.434 224.66,57.925 226.169,49.934 227.744,50.23 226.531,56.647 232.948,57.859 		"/>
	</g>
	<g>
		<polygon points="166.203,17.657 158.396,11.114 159.688,9.577 165.955,14.831 171.209,8.563 172.746,9.852 		"/>
	</g>
	<g>
		<polygon points="172.727,100.53 171.729,94.805 166.003,95.804 165.758,94.399 172.889,93.156 174.131,100.286 		"/>
	</g>
	<g>
		<polygon points="273.313,21.045 267.066,16.094 268.043,14.863 273.059,18.84 277.034,13.823 278.266,14.798 		"/>
	</g>
	<g>
		<polygon points="205.621,276.938 202.576,271.229 196.866,274.273 196.119,272.873 203.23,269.082 207.021,276.191 		"/>
	</g>
	<g>
		<polygon points="240.996,214.277 233.175,206.523 234.702,204.982 240.982,211.21 247.209,204.93 248.75,206.456 		"/>
	</g>
</g>
</svg>
